<?xml version="1.0" encoding="utf-8"?>
<!-- Generator: Adobe Illustrator 22.1.0, SVG Export Plug-In . SVG Version: 6.00 Build 0)  -->
<svg version="1.1" id="Layer_1" xmlns="http://www.w3.org/2000/svg" xmlns:xlink="http://www.w3.org/1999/xlink" x="0px" y="0px"
	 viewBox="0 0 133 31" style="enable-background:new 0 0 133 31;" xml:space="preserve">
<style type="text/css">
	.st0{fill:#636363;}
</style>
<path id="Tourism" class="st0" d="M4.3,11.1c1.7,0,3.4,0.7,3.4-0.2c0-0.8-2.8-1.1-3.4-1.3V9.6c7-2.1,14.2-3.2,21.4-3.2l-4.2,5.4
	C18.8,15.2,11,25,11,29.2c0,1.2,1.2,1.8,2.3,1.8c1.3,0,3-2.5,3.8-3.5c0.5-0.6,1.8-2.1,1.8-3c0-0.4-0.3-0.7-0.6-0.7
	c-0.1,0-0.3,0-0.4,0.1l-0.1-0.1l10-15c0.6-0.9,1.9-2.5,1.6-3.5c-1.1-2.9-0.9-4.2-3.5-4.8C23.7,0.2,21.5,0,19.4,0
	c-5.3,0-11,0.6-15.8,2.8C0.8,4,0.9,4.9,0.4,7.6C0.2,8.4,0.1,9.2,0,10c0,1.1,0.9,1.1,1.9,1.1L4.3,11.1z M40.5,21.1
	c-1.3,1-2.5,2.6-4.4,2.2c0.8-1.6,1.7-3.1,1.7-5c0-1.3-0.3-2.1-1.5-2.5c0.5-0.1,0.9-0.6,1-1.1c0-1.1-1.4-1.6-2.3-1.5
	c-2.9,0.2-5.7,1.3-7.9,3.1c-2.4,1.8-3.9,3.9-3.9,7.1c0.2,3.8,2.2,6,4.4,6c2.5-0.1,4.9-1.2,6.5-3.2c2.7,0.1,5.3-1.2,6.9-3.4
	L40.5,21.1z M32.7,17.8c0.2,0.1-1.8,2.7-1.8,4.9c0,0.7,0.2,1.3,0.5,1.9c-0.8,1-2,1.6-3.3,1.7c-1.1,0-1.9-0.4-1.9-1.6
	c0.1-1.5,0.7-2.8,1.7-3.9C29.5,19.7,31,18.7,32.7,17.8z M48.3,21.7c-2,1.8-4.3,3-5.1,3c-0.3,0-0.3-0.4-0.3-0.6c0-1.8,1-2.7,2.3-3.6
	c1.2-0.8,2.3-1.9,3.2-3c0.7-0.6,1.3-1.4,1.7-2.2c0.2-1.3-2-0.9-2.6-0.9c-0.7,0-1.3,0.1-1.9,0.5c-2.7,1.8-5.9,6-5.9,10.1
	c0,1.8,1.1,4.2,3.2,4.2c2.3,0,5.2-3.8,6.8-5.2l0.1,0.1C49.3,25,49,26.2,49,27.4c-0.1,1.4,0.9,2.7,2.3,2.8c0.1,0,0.1,0,0.2,0
	c3.1,0,7.6-4.8,9.8-6.9L61,21.5c-1.3,1-4.9,4-6.5,4c-0.5,0.1-0.9-0.2-1-0.7c0-0.1,0-0.2,0-0.3c0-1.9,3-5.2,4.4-6.4
	c0.7-0.6,1.8-1.6,1.7-2.6c-0.2-2.2-0.6-2.3-1-2.3c-1.1,0-5.2,4-6.1,4.8L48.3,21.7z M68,19.1L68,19.1c-1.6,2.1-3.8,4.3-3.8,7.2
	c-0.1,1.7,1.2,3.1,2.9,3.2c2.4,0,7.3-4.7,8.9-6.5l-0.3-1.6c-1.4,1.1-4.1,3.8-5.9,3.8c-0.7,0-1.3-0.5-1.3-1.2c0-1.7,2.1-3.8,3.3-4.8
	c1-0.8,1.8-1.4,1.8-2.7c-0.1-0.8-0.5-1.6-1-2.2c-0.4-0.5-2.8,0-6.7,0.5c0.2-0.4,0.3-0.8,0.3-1.2c0-0.4-0.4-0.7-0.8-0.7
	c-1,0-5.3,3-5.3,6.1c-0.1,0.6,0.2,1.1,0.8,1.3c0.1,0,0.2,0,0.4,0c-0.8,1.2-1.7,2.2-2.8,3.1l0.2,1.9c1.8-1.8,3.6-2.9,5.1-5.2L68,19.1
	z M87,22.1c-1.7,1.2-3.9,3.5-6.1,3.5c-1.9,0-2.6-0.9-2.2-2.7c1.8-1.2,6-5,6-7.1c0-0.9-1.1-1.2-1.9-1.2c-2.5,0-7.8,5-7.8,10.2
	c0,2.1,1.1,5,3.6,5c3.2,0,6.9-3.8,8.8-6.1L87,22.1z M85,13.8c1.8,0,3.4-2.1,3.4-3.8c0-0.7-0.6-1.3-1.4-1.3c0,0,0,0,0,0
	c-1.7,0-3.7,1.5-3.7,3.2c-0.1,0.9,0.6,1.7,1.6,1.8C84.9,13.8,84.9,13.8,85,13.8L85,13.8z M93.6,17.1c0.3,1.4,0.4,2.6,0.6,3.5
	c-0.1,2.4-0.8,3.2-3.3,4.7c-0.8-1.1-1.7-2.4-3.3-2.5L93.6,17.1z M99.4,23.9c-2.1,1.6-3.7,2.8-6.4,2.4c2.7-1.6,5.5-4.2,5.5-7.7
	c0-1.9-0.6-3.3-0.8-4.9c-0.1-1.2-0.4-1.6-1.7-1.6c-1.5,0-2.3,1.3-2.4,2.7l-9.2,8.4c-0.5,0.4-0.9,0.9-1,1.5c0,0.4,0.3,0.8,0.7,0.8
	c0.4-0.1,0.7-0.3,0.9-0.5c0.8,3.1,3.9,4.7,6.7,4.8c3.4,0.2,8-3.7,10.6-6.2l-0.4-1.6L99.4,23.9z M123.4,20.5L123.4,20.5
	c-1,1.8-3,4.8-3,6.9c-0.1,1.3,0.9,2.3,2.2,2.4c2.4,0,8.5-5,10.5-6.5l-0.3-2c-5.2,3.5-5.7,3.5-6.6,3.8c-0.6,0-1-0.4-1-1c0,0,0,0,0,0
	c0-1,0.3-1.6,3.6-5.3c0.6-0.6,1.1-1.3,1.3-2.1c-0.1-0.6-0.4-1.2-0.8-1.7c-0.1-0.2-0.6-1.2-0.9-1.2c-0.7,0.2-1.4,0.6-2,1.2l-9.4,7.4
	l-0.1-0.1c0.9-1.6,3.9-5.1,3.9-6.9c0.1-0.9-0.5-1.8-1.5-1.9c-0.1,0-0.2,0-0.2,0c-2.8,0-10.3,7.5-12.4,9.7c-0.2,0.3-0.5,0.5-0.8,0.7
	c-0.2-0.1-0.3-0.2-0.3-0.4c0.2-0.8,0.6-1.6,1.2-2.2c0.7-0.9,1.5-1.8,2.3-2.6c0.5-0.6,1.7-1.9,1.7-2.7c0-0.9-1.3-0.9-1.9-1
	c-2.5-0.3-7,5.3-7.1,9.4c0,1.5,0.6,4.8,2.6,4.8c0.7-0.1,1.4-0.5,1.8-1.2c2-2.4,4.4-5,6.6-7.3c0.4-0.6,1-1,1.7-1.3
	c0.2,0,0.3,0.1,0.3,0.3c0,0,0,0,0,0c0,0.2-0.1,0.4-0.3,0.5c-2.8,4.2-3.8,6.1-3.7,7.3c0,1,0.9,1.8,1.9,1.8c1.4,0,3-1.7,3.9-2.7
	L123.4,20.5z"/>
</svg>
