<?xml version="1.0" encoding="utf-8"?>
<!-- Generator: Adobe Illustrator 22.1.0, SVG Export Plug-In . SVG Version: 6.00 Build 0)  -->
<svg version="1.1" id="Layer_1" xmlns="http://www.w3.org/2000/svg" xmlns:xlink="http://www.w3.org/1999/xlink" x="0px" y="0px"
	 viewBox="0 0 530 98" style="enable-background:new 0 0 530 98;" xml:space="preserve">
<style type="text/css">
	.st0{enable-background:new    ;}
	.st1{fill:#FFFFFF;}
</style>
<g class="st0">
	<path class="st1" d="M90.6,48.2c0.1,0.4-0.1,0.8-0.4,1.2c-0.3,0.4-0.7,0.6-1.1,0.7l-0.4,0.1l-16,3.8c-1.1,3.8-2.5,7.3-4.1,10.6
		c-1.6,3.3-3.4,6.3-5.5,8.9c-2.8,3.6-6,6.8-9.6,9.7C50,86,46.2,88.5,42,90.5c-3.6,1.8-7.3,3.2-11,4.2c-3.7,1-7.3,1.5-10.7,1.7
		c-1.7,0-3.4-0.1-5.1-0.2c-1.7-0.2-3.2-0.5-4.5-0.9c-2.9-1-4.8-2.6-5.7-4.6c-1.8-3.6-1.6-7.3,0.6-10.9c2.2-3.7,6.4-7.3,12.8-10.8
		c5.4-2.9,12.4-5.8,21-8.7c3.2-1,6.4-2.1,9.7-3c3.3-1,6.7-1.9,10.1-2.8c0.5-1.7,1-3.4,1.3-5.1c0.4-1.7,0.7-3.5,0.9-5.3
		c0.9-6.1,1.2-11.7,0.6-16.8c-0.5-5.1-1.9-9.4-4.1-12.9c-1.9-3.1-4.3-5.4-7.1-7c-2.8-1.6-5.7-2.4-8.7-2.6C39.1,4.4,36.1,4.9,33,6
		c-3,1.1-5.8,2.9-8.4,5.2c-2,1.9-3.9,4-5.5,6.4c-1.6,2.4-3,4.9-4.3,7.4c-1.2,2.5-2.2,5.1-3,7.5c-0.8,2.5-1.3,4.7-1.5,6.8
		c-0.3,2.1-0.3,3.9,0,5.4s0.7,2.5,1.5,3.1c0.8,0.6,1.1,1.3,0.7,2c-0.3,0.7-1,1.3-2,1.7c-1,0.4-2.1,0.6-3.5,0.5s-2.6-0.7-3.7-1.7
		c-1.8-1.6-2.9-3.8-3.2-6.6c-0.4-2.8-0.1-5.8,0.8-9.1c0.9-3.3,2.4-6.7,4.5-10.3c2.1-3.5,4.7-6.8,7.9-9.9c3.2-3.1,6.9-5.7,11-8
		c4.2-2.3,8.8-3.8,13.9-4.6c6.1-1,11.8-1,16.8,0c5.1,1,9.3,3.1,12.6,6.5c3.3,3.3,5.7,7.9,7,13.8c1.3,5.9,1.4,13.1,0.1,21.8
		c-0.2,1.2-0.4,2.4-0.6,3.5c-0.2,1.1-0.5,2.2-0.7,3.3l15-3.5L89,47c0.5-0.1,0.9,0,1.2,0.2C90.5,47.4,90.7,47.8,90.6,48.2z M8,88.7
		c0.7,1.5,1.7,2.6,3,3.2c1.3,0.6,2.7,0.9,4.3,0.9c1.6,0,3.2-0.2,5-0.7c1.8-0.5,3.5-1.1,5.2-1.7c1.7-0.7,3.3-1.4,4.7-2.2
		c1.5-0.8,2.7-1.5,3.8-2.1c5.7-3.4,10.6-7.4,14.7-12c4.1-4.6,7.2-10.1,9.5-16.5c-3.2,0.8-6.3,1.7-9.4,2.6c-3.1,0.9-6.1,1.9-8.9,2.8
		C22.2,69,11.7,74.9,8.3,80.8C6.8,83.4,6.7,86,8,88.7z M18.2,56c-0.4-1.3-0.3-3.1,0.4-5.4c0.7-2.4,1.6-5,2.8-7.8s2.5-5.7,3.9-8.7
		c1.4-3,2.8-5.8,3.9-8.3c1.2-2.5,2.1-4.7,2.7-6.5c0.6-1.8,0.7-2.9,0.3-3.3c-0.3-0.2-0.2-0.5,0.2-0.7c0.4-0.3,0.9-0.5,1.6-0.7
		c0.7-0.2,1.5-0.3,2.3-0.4c0.9-0.1,1.7,0,2.5,0.2c0.8,0.2,1.5,0.6,2,1.2c0.6,0.6,0.9,1.4,1,2.4c0.2,2,0,4.1-0.7,6.5
		c-0.7,2.3-1.7,4.7-2.8,7.1s-2.5,4.9-3.9,7.4c-1.4,2.5-2.7,4.9-3.9,7.2c-1.2,2.3-2.2,4.5-3,6.5c-0.8,2-1.1,3.9-1,5.4
		c0,0.5-0.3,0.9-1,1.4c-0.7,0.4-1.4,0.7-2.4,0.7c-0.9,0-1.8-0.3-2.8-0.9C19.4,58.6,18.7,57.6,18.2,56z"/>
	<path class="st1" d="M106,39.9c-0.8,1.5-1.7,3.2-2.8,5c-1.1,1.8-2.2,3.5-3.5,5.3c-1.3,1.8-2.6,3.4-3.9,4.9
		c-1.3,1.5-2.7,2.7-4.1,3.6c-1.4,0.9-2.7,1.4-3.9,1.4c-1.1,0.1-2-0.2-2.7-0.6c-0.8-0.5-1.4-1.1-1.9-2c-0.5-0.9-0.8-1.9-0.9-3.1
		c-0.2-1.2-0.2-2.6,0-4c0.2-1.7,0.6-3.6,1.2-5.5c0.6-1.9,1.3-3.9,2.1-5.8c0.8-1.9,1.6-3.8,2.4-5.6c0.8-1.8,1.5-3.5,2.1-4.9
		c0.6-1.5,1-2.7,1.3-3.7c0.2-1,0.2-1.7-0.2-2c-0.4-0.3-0.2-0.7,0.5-1.1c0.7-0.4,1.6-0.7,2.6-0.7c1-0.1,2.1,0.2,3.3,0.7
		c1.1,0.5,1.9,1.6,2.4,3.1c0.5,1.5,0.4,3.4-0.2,5.6c-0.6,2.2-1.5,4.4-2.6,6.8c-1.1,2.4-2.3,4.7-3.6,7c-1.3,2.3-2.4,4.4-3.2,6.2
		s-1.4,3.3-1.5,4.3c-0.1,1.1,0.4,1.6,1.6,1.5c0.5-0.1,1.2-0.5,2-1.3c0.8-0.8,1.7-1.8,2.7-3c1-1.2,2-2.6,3.1-4.1c1.1-1.5,2-3,3-4.6
		c0.9-1.5,1.8-3,2.5-4.3c0.7-1.4,1.3-2.5,1.6-3.4c0.2-0.4,0.4-0.7,0.8-0.8c0.4-0.1,0.7-0.1,1,0c0.3,0.1,0.6,0.3,0.7,0.6
		c0.2,0.3,0.2,0.7,0,1C107.4,37.1,106.8,38.3,106,39.9z M102.6,15.4c0.3-0.6,0.6-1.3,0.9-1.9c0.3-0.6,0.7-1.2,0.9-1.8
		c0.3-0.6,0.4-1,0.4-1.3c0-1.3-0.4-2.4-1.2-3.2c-0.8-0.8-1.7-1.5-2.6-1.9c-1-0.4-1.9-0.6-2.6-0.6c-0.8,0-1.2,0.2-1.2,0.6
		c0,0.3-0.2,0.8-0.5,1.3c-0.3,0.6-0.7,1.2-1.1,1.9c-0.4,0.7-0.7,1.3-1.1,1.9c-0.3,0.6-0.5,1.1-0.5,1.5c0,1.3,0.4,2.4,1.3,3.3
		c0.8,0.9,1.7,1.5,2.7,1.9c1,0.4,1.9,0.6,2.7,0.6c0.8,0,1.3-0.2,1.3-0.6C102.1,16.5,102.3,16,102.6,15.4z"/>
	<path class="st1" d="M114.6,58.4L114.6,58.4c-1.2,0.7-2.3,1.1-3.4,1.4c-1.1,0.3-1.9,0.5-2.7,0.5c-2.1,0-3.7-0.5-4.8-1.6
		c-1.1-1.1-1.9-2.3-2.2-3.8c-0.4-1.5-0.4-2.9-0.2-4.4c0.3-1.5,0.8-2.6,1.5-3.4c1.1-1.1,2-1.8,2.8-2.2c0.8-0.4,1.5-0.5,2.1-0.4
		c0.6,0.1,1.1,0.3,1.6,0.7c0.5,0.4,0.7,0.9,0.7,1.6c0,0.7-0.2,1.3-0.7,1.7c-0.5,0.5-1.1,0.7-1.7,0.7c-0.5,0-0.9-0.1-1.3-0.4
		c-0.4-0.3-0.7-0.7-0.9-1.1c-0.7,0.8-1.2,1.7-1.4,2.8c-0.3,1.1-0.3,2.2-0.2,3.1c0.2,1,0.6,1.8,1.2,2.6s1.6,1.1,2.7,1.1
		c0.4,0,1-0.2,1.8-0.6c0.8-0.4,1.6-1,2.4-2c0.8-0.9,1.5-2.1,2.2-3.5c0.6-1.4,1-3.2,1.1-5.2c0.1-2-0.1-4.4-0.7-7.2
		c-0.6-2.7-1.7-5.8-3.3-9.2c-0.5,1-1.1,2.1-1.8,3.3c-0.7,1.2-1.2,2.3-1.8,3.3c-0.3,0.4-0.6,0.6-0.9,0.6c-0.4,0.1-0.7,0-1-0.1
		c-0.3-0.1-0.5-0.3-0.7-0.6c-0.1-0.3-0.1-0.6,0.1-1c0.4-0.9,0.8-1.7,1.2-2.4c0.4-0.7,0.7-1.4,1.1-2c0.4-0.6,0.7-1.3,1-1.9
		c0.3-0.7,0.7-1.4,1-2.1c-0.6-0.8-1-1.8-1.3-2.8c-0.3-1-0.5-2-0.5-3.1c0-0.5,0.1-1.1,0.3-1.8c0.2-0.7,0.5-1.4,0.9-2.1
		c0.4-0.7,1.1-1.3,1.9-1.8c0.8-0.5,1.8-0.7,3.1-0.7c1.3,0,2.3,0.3,2.9,0.9c0.6,0.6,0.9,1.3,1,2.2c0.1,0.9-0.1,1.9-0.6,3
		c-0.4,1.1-1,2.1-1.7,3.2l-0.2,0.5c2,2.4,3.7,4.6,4.9,6.8c1.2,2.2,2.2,4.2,2.8,6.1c0.6,1.9,1,3.8,1.1,5.4c0.1,1.7-0.1,3.3-0.4,4.7
		c1.7-2,3.3-4,4.6-5.9c1.4-1.9,2.5-3.8,3.4-5.5c0.2-0.4,0.4-0.6,0.7-0.7c0.3-0.1,0.7-0.1,1.2,0.2c0.4,0.2,0.6,0.5,0.7,0.9
		c0.1,0.4,0,0.7-0.1,1c-1.3,2.6-2.7,5-4.4,7.2c-1.7,2.3-3.5,4.5-5.5,6.8c-1.4,1.6-2.9,3-4.5,4.3C118.4,56.5,116.7,57.6,114.6,58.4
		L114.6,58.4z"/>
	<path class="st1" d="M152,27.1c0-0.4,0.1-0.8,0.4-1.2c0.2-0.4,0.5-0.7,0.9-0.9c-0.3-0.6-0.7-0.9-1.3-0.9c-0.7-0.1-1.5,0.3-2.4,1
		c-0.9,0.7-1.9,1.7-2.9,3.1c-1,1.3-2.1,3-3.2,5c-1.1,2-2.2,4.2-3.3,6.6c-0.7,1.5-1.2,3.2-1.7,5c-0.4,1.8-0.7,3.6-0.8,5.2
		c-0.1,1.6,0.1,3,0.4,4.2c0.4,1.2,1,1.9,2,2.1c1.2,0.2,2.4,0,3.7-0.5c1.3-0.6,2.7-1.4,4.1-2.5c1.4-1.1,2.8-2.4,4.1-3.9
		c1.3-1.5,2.6-3,3.8-4.6c1.2-1.6,2.2-3.2,3.2-4.8c0.9-1.6,1.6-3.1,2.2-4.4c0.2-0.4,0.4-0.7,0.8-0.8c0.4-0.1,0.8-0.1,1.2,0.1
		c0.7,0.4,0.9,0.9,0.6,1.7c-0.8,1.8-1.9,3.8-3.1,5.9c-1.2,2.1-2.6,4.1-4.1,6c-1.5,1.9-3.2,3.8-4.9,5.5c-1.8,1.7-3.6,3.1-5.4,4.2
		c-1.9,1.1-3.8,1.8-5.8,2.1c-2,0.3-3.9,0.1-5.8-0.7c-2.1-0.8-3.6-2.1-4.5-3.7c-0.9-1.6-1.5-3.4-1.6-5.3c-0.2-1.9,0-3.9,0.5-6
		c0.5-2.1,1.1-4,1.7-5.7c1.3-3.2,2.7-5.9,4.2-8.2c1.5-2.3,3.2-4.1,4.9-5.6c1.7-1.4,3.5-2.5,5.4-3.1c1.8-0.6,3.7-0.9,5.6-0.9
		c0.6,0.1,1.3,0.2,2,0.4c0.7,0.2,1.4,0.5,2,0.9c0.6,0.4,1.1,1,1.5,1.7c0.4,0.7,0.6,1.6,0.6,2.6c0,1.1-0.2,1.8-0.7,2.3
		c-0.4,0.5-1,0.8-1.7,0.8c-0.6,0-1.2-0.2-1.7-0.6C152.2,28.3,152,27.8,152,27.1z"/>
	<path class="st1" d="M186.3,26.4c0,0.8-0.2,1.4-0.5,1.8c-0.4,0.8-1.1,1.2-2,1.2c-0.6,0-1.2-0.2-1.7-0.6c-0.5-0.4-0.7-1-0.7-1.7
		c0-0.4,0.1-0.8,0.4-1.2c0.2-0.4,0.5-0.7,0.9-0.9c-0.4-0.7-0.9-1.1-1.5-1.1c-0.6,0-1.1,0.2-1.8,0.7c-0.6,0.4-1.3,1.1-1.9,1.8
		c-0.7,0.8-1.3,1.5-1.9,2.3c-1.1,1.4-2.2,3.1-3.2,4.9c-1,1.9-1.9,3.8-2.7,5.7c-0.8,2-1.4,3.9-1.9,5.8c-0.5,1.9-0.7,3.7-0.7,5.2
		c0,1.6,0.2,2.9,0.7,3.9c0.5,1,1.3,1.6,2.4,1.9c0.8,0.2,1.7-0.2,2.6-1.1c1-0.9,1.9-2,2.9-3.3c1-1.4,1.9-2.8,2.8-4.4
		c0.9-1.6,1.7-3.1,2.4-4.4c-1.1-0.5-1.9-1.2-2.3-2.3c-0.4-1.1-0.6-2.2-0.4-3.3c0.2-1.1,0.6-2.1,1.3-2.9c0.7-0.8,1.5-1.3,2.6-1.3
		c0.4,0,0.8,0,1.4,0.1c0.6,0.1,1.1,0.3,1.5,0.8c0.4,0.5,0.7,1.3,0.7,2.4c0.1,1.1-0.2,2.7-0.9,4.8c2.1-0.1,3.8-0.3,5-0.9
		c1.3-0.5,2.2-1.1,3-1.7s1.2-1.2,1.4-1.9c0.2-0.6,0.4-1,0.5-1.1c0.2-0.4,0.4-0.6,0.7-0.7c0.3-0.1,0.7,0,1,0.1
		c0.3,0.2,0.6,0.4,0.7,0.7c0.2,0.3,0.2,0.7,0,1.1c-0.4,1-1.1,1.9-2,2.8c-0.9,0.8-1.9,1.5-3.1,2.1c-1.2,0.6-2.5,1-3.9,1.3
		c-1.4,0.3-2.9,0.4-4.4,0.4c-0.7,1.6-1.7,3.4-2.8,5.4c-1.1,2-2.4,3.8-3.9,5.5c-1.5,1.7-3.1,3.1-4.8,4.2c-1.8,1.1-3.6,1.6-5.6,1.4
		c-2.6-0.3-4.7-1.4-6.2-3.3c-1.5-1.9-2.3-4.3-2.4-7.1c-0.1-2.1,0.2-4.3,0.6-6.6c0.5-2.3,1.2-4.5,2.1-6.7c0.9-2.2,2.1-4.3,3.5-6.3
		c1.4-2,2.9-3.7,4.6-5.2c1.7-1.5,3.6-2.6,5.6-3.4c2-0.8,4.1-1.1,6.3-1c1,0.1,1.8,0.3,2.5,0.7c0.7,0.4,1.2,0.9,1.6,1.4
		c0.4,0.6,0.7,1.2,0.9,1.8C186,25.2,186.1,25.8,186.3,26.4z"/>
	<path class="st1" d="M223.8,24.8c0.4,1.5,0.4,3.5,0,5.8c-0.4,2.4-1.1,4.9-2.1,7.5c-1,2.6-2.3,5.3-3.9,7.9c-1.6,2.7-3.3,5-5.3,7.2
		c-2,2.1-4.1,3.8-6.4,5.1c-2.3,1.3-4.7,1.9-7.2,1.9s-4.4-0.5-5.7-1.5c-1.3-1-2.1-2.3-2.4-3.9c-0.3-1.6-0.3-3.5,0-5.6
		c0.4-2.1,0.9-4.3,1.7-6.5c0.7-2.2,1.5-4.5,2.4-6.7c0.9-2.2,1.7-4.3,2.4-6.1c0.7-1.8,1.2-3.4,1.5-4.6c0.3-1.3,0.3-2.1-0.1-2.5
		c-0.4-0.3-0.2-0.7,0.5-1.1c0.7-0.4,1.6-0.7,2.6-0.7c1-0.1,2.1,0.2,3.3,0.7c1.1,0.5,1.9,1.6,2.4,3.1c0.5,1.5,0.4,3.4-0.2,5.6
		c-0.6,2.2-1.5,4.5-2.6,6.9c-1.1,2.4-2.3,4.8-3.5,7.1c-1.2,2.4-2.2,4.5-2.9,6.4c-0.7,1.9-1,3.4-0.9,4.6c0.1,1.2,1,1.7,2.6,1.7
		c1.6,0,3.1-0.8,4.5-2.4c1.4-1.6,2.8-3.6,4-6.1c1.2-2.4,2.3-5.1,3.3-8c0.9-2.9,1.7-5.6,2.4-8.1c0.6-2.5,1-4.7,1.3-6.6
		c0.2-1.8,0.2-2.9,0-3.2c-0.2-0.3,0-0.7,0.7-1.1c0.7-0.4,1.5-0.7,2.5-0.7c1-0.1,2,0.2,3,0.7C222.7,22.2,223.4,23.2,223.8,24.8z"/>
	<path class="st1" d="M259.3,34.7c0.6,0.4,0.8,1,0.5,1.7c-0.9,1.9-2,3.9-3.2,5.9c-1.2,2.1-2.6,4.1-4.2,6.1c-1.5,2-3.2,3.8-4.9,5.4
		c-1.7,1.7-3.5,3-5.4,4.1c-1.9,1.1-3.8,1.7-5.7,2c-1.9,0.3-3.9,0.1-5.8-0.7c-2.1-0.8-3.6-2.1-4.5-3.7c-0.9-1.6-1.5-3.4-1.6-5.3
		c-0.2-1.9,0-3.9,0.5-6c0.5-2.1,1.1-4,1.7-5.7c1.3-3.2,2.7-5.9,4.2-8.1c1.5-2.2,3.2-4.1,4.9-5.5c1.7-1.4,3.5-2.5,5.4-3.1
		c1.8-0.7,3.7-1,5.6-1c1.9,0,3.4,0.5,4.3,1.4c0.9,0.9,1.4,2.2,1.4,3.7c0,1.5-0.4,3.2-1.3,5c-0.8,1.8-2,3.6-3.6,5.4
		c-1.5,1.8-3.4,3.4-5.6,4.8c-2.2,1.4-4.7,2.5-7.4,3.3c-0.4,1.4-0.6,2.7-0.8,4.1c-0.2,1.3-0.2,2.6-0.1,3.7c0.1,1.1,0.4,2,0.7,2.8
		c0.4,0.7,1,1.2,1.8,1.3c1.2,0.2,2.4,0,3.7-0.5c1.3-0.6,2.7-1.4,4.1-2.5c1.4-1.1,2.8-2.4,4.1-3.9c1.3-1.5,2.6-3,3.8-4.6
		c1.2-1.6,2.2-3.2,3.2-4.8c0.9-1.6,1.6-3.1,2.2-4.4c0.2-0.4,0.4-0.7,0.8-0.9C258.5,34.3,258.9,34.4,259.3,34.7z M236.2,39.6
		c-0.3,0.6-0.5,1.1-0.6,1.6c3.2-1.1,5.7-2.6,7.8-4.5c2-1.9,3.5-3.8,4.5-5.7c1-1.9,1.5-3.5,1.5-4.8c0-1.4-0.4-2.1-1.4-2.1
		c-1.4-0.1-3.2,1.3-5.4,4.1C240.5,30.9,238.3,34.7,236.2,39.6z"/>
	<path class="st1" d="M259.5,37c-0.2,0.3-0.4,0.5-0.7,0.6c-0.3,0.1-0.7,0.1-0.9,0c-0.3-0.1-0.5-0.3-0.7-0.6c-0.2-0.3-0.2-0.6,0-1.1
		c0.2-0.5,0.4-1.2,0.9-2.2c0.4-1,0.8-2,1.3-3.1c0.4-1.1,0.8-2.1,1.3-3.1c0.4-1,0.7-1.9,0.9-2.6c-1.2-0.6-2.2-1.5-3.1-2.8
		c-0.9-1.3-1.3-2.5-1.3-3.8c0-1.6,0.4-3,1.3-4.2c0.8-1.2,2.1-1.7,3.8-1.7c1.1,0,2,0.4,2.7,1.3c0.8,0.9,1.2,1.9,1.2,3.1
		c0,0.7,0,1.6-0.1,2.8c-0.1,1.2-0.2,2.2-0.4,3c0.3,0.2,0.6,0.3,1.1,0.4c0.4,0.1,0.9,0.1,1.5,0.1c1.2,0,2.1-0.1,2.7-0.4
		c0.7-0.3,1.2-0.5,1.7-0.8c0.5-0.3,0.9-0.6,1.4-0.8c0.5-0.3,1.1-0.4,1.9-0.4c1,0,2.1,0.3,3.2,0.8c1,0.5,1.8,1.5,2.3,3.1
		c0.5,1.5,0.4,3.4-0.2,5.6c-0.6,2.2-1.5,4.4-2.6,6.8c-1.1,2.4-2.3,4.7-3.6,7c-1.3,2.3-2.4,4.4-3.2,6.2c-0.9,1.8-1.4,3.3-1.5,4.3
		c-0.1,1.1,0.4,1.6,1.6,1.5c0.5-0.1,1.1-0.5,2-1.3c0.8-0.8,1.8-1.8,2.8-3c1-1.2,2-2.6,3.1-4.1c1-1.5,2-3,3-4.6
		c0.9-1.5,1.8-3,2.5-4.3c0.7-1.4,1.3-2.5,1.6-3.4c0.2-0.4,0.4-0.7,0.8-0.8c0.4-0.1,0.7-0.1,1,0c0.3,0.1,0.6,0.3,0.7,0.6
		c0.2,0.3,0.2,0.7,0,1c-0.4,0.9-1,2.1-1.8,3.7c-0.8,1.5-1.7,3.2-2.8,5c-1.1,1.8-2.2,3.5-3.5,5.3c-1.3,1.8-2.6,3.4-3.9,4.9
		c-1.3,1.5-2.7,2.7-4.1,3.6c-1.4,0.9-2.7,1.4-3.9,1.4c-1.1,0.1-2-0.2-2.7-0.6c-0.8-0.5-1.4-1.1-1.9-2c-0.5-0.9-0.8-1.9-0.9-3.1
		c-0.2-1.2-0.2-2.6,0-4c0.2-2,0.7-4.2,1.5-6.5c0.8-2.3,1.7-4.6,2.6-6.8c0.9-2.2,1.9-4.3,2.8-6.3c0.9-1.9,1.5-3.6,2-5
		c-1.1,0.4-2.4,0.7-3.7,0.7c-1.4,0.1-2.8-0.1-4.1-0.4c-0.2,0.4-0.4,1-0.8,2c-0.4,1-0.8,2-1.3,3.1c-0.5,1.1-0.9,2.2-1.4,3.3
		C260.2,35.6,259.8,36.4,259.5,37z"/>
	<path class="st1" d="M382.6,51.3c-0.1,0.4-0.2,0.8-0.5,1.1c-0.3,0.3-0.7,0.6-1.1,0.7c-0.1,0-0.5,0.1-1.3,0.2s-2,0.3-3.5,0.6
		s-3.3,0.5-5.3,0.9c-2,0.4-4.2,0.8-6.6,1.3c-0.7,2.4-1.6,4.8-2.5,7.2c-0.9,2.4-2,4.7-3.2,6.9c-3.7,7.2-8,13-13.1,17.4
		c-5.7,5.1-12.3,8.4-19.6,10.1c-1.4,0.3-2.7,0.5-4,0.5c-1.6,0-3-0.2-4.2-0.6c-2.5-0.7-4.5-2-6-3.9c-1.3-1.7-2-3.8-2.1-6.2
		c-0.2-2.5,0.4-5.2,1.8-8c2.5-5.2,7.7-9.9,15.7-14.1c3-1.6,6.4-3.1,10.2-4.6s8-2.9,12.5-4.2c1.3-3.8,2.3-7.5,3.1-11.1
		c0.8-3.6,1.5-6.9,2-9.9c-1.1,1.7-2.2,3.3-3.4,4.8c-1.2,1.5-2.3,3-3.5,4.4c-3.4,4.1-6.9,7.6-10.4,10.4c-3,2.4-5.9,4.2-8.7,5.4
		c-2.8,1.2-5.4,1.9-8,1.9c-0.3,0-0.5,0-0.7,0s-0.5,0-0.7,0c-4.2-0.5-7.4-2.5-9.6-6.1c-0.6-1.2-1.1-2.5-1.5-3.9
		c-0.4-1.4-0.6-2.8-0.6-4.4c-0.1-3.3,0.6-6.8,1.8-10.5c1-2.8,2.1-5.5,3.3-8.1c1.2-2.6,2.6-5.1,4.1-7.5c2.7-4.3,5.8-8.2,9.2-11.6
		c1.5-1.5,3.2-3,5.1-4.3c1.9-1.3,3.8-2.4,5.8-3.3c2-0.9,4-1.4,6.1-1.7c2-0.3,4-0.1,6,0.6c2.4,0.8,4.5,1.9,6.2,3.4
		c1.7,1.5,3,3.1,3.9,5c0.9,1.8,1.3,3.7,1.3,5.6c0,1.9-0.6,3.8-1.7,5.5c-0.3,0.5-0.8,0.8-1.5,0.9c-0.7,0.1-1.4,0.1-2.2,0
		c-0.8-0.1-1.7-0.2-2.5-0.5c-0.9-0.3-1.6-0.6-2.3-0.9s-1.1-0.6-1.5-1c-0.3-0.3-0.3-0.6-0.1-0.9c1.3-1.3,2.2-2.7,2.7-4.2
		c0.5-1.5,0.7-2.8,0.6-4.1c-0.1-1.3-0.5-2.4-1.1-3.3c-0.6-0.9-1.4-1.6-2.3-2c-1.3-0.5-2.7-0.5-4.2,0.2c-1.5,0.6-3,1.7-4.6,3.2
		c-1.6,1.5-3.2,3.3-4.8,5.5c-1.6,2.2-3.1,4.6-4.6,7.2c-1.5,2.6-2.9,5.3-4.2,8.2c-1.3,2.9-2.5,5.7-3.5,8.6c-1.4,4.1-2.1,7.7-2,10.6
		c0.1,2.9,0.8,5.1,2,6.4c1.3,1.4,3,1.9,5.3,1.6c2.3-0.3,4.8-1.6,7.7-3.9c3.4-2.7,6.8-6.1,10.2-10.3c3.4-4.2,6.7-8.9,10-14.2
		c0.2-0.4,0.7-0.7,1.5-1c0.8-0.3,1.7-0.5,2.7-0.7c1-0.2,2.1-0.4,3.3-0.5c1.2-0.1,2.2-0.1,3.1,0c0.9,0.1,1.7,0.3,2.3,0.6
		c0.6,0.3,0.9,0.7,0.8,1.3c-0.3,3.5-0.8,7.3-1.5,11.5c-0.7,4.2-1.7,8.6-3,13.2c2.3-0.5,4.3-0.9,6.2-1.2c1.9-0.3,3.5-0.6,4.9-0.9
		c1.4-0.2,2.9-0.5,4.5-0.7C382,49.8,382.5,50.3,382.6,51.3z M314.4,91.5c0.6,0.7,1.5,1.1,2.8,1.2c1.3,0.1,2.8-0.2,4.5-0.7
		c1.7-0.5,3.5-1.3,5.5-2.4c1.9-1.1,3.9-2.4,5.8-4c2-1.7,3.8-3.6,5.6-5.9c1.7-2.3,3.2-4.6,4.6-6.9c1.3-2.4,2.5-4.6,3.4-6.8
		s1.6-4.1,2-5.7c-9.5,2.8-17.1,6-22.8,9.4c-5.8,3.4-9.5,7.1-11.4,10.9c-1.1,2.2-1.6,4.3-1.5,6.1C312.8,88.5,313.3,90.1,314.4,91.5z"
		/>
	<path class="st1" d="M383.7,37c-0.2,0.3-0.4,0.5-0.7,0.6c-0.3,0.1-0.7,0.1-0.9,0c-0.3-0.1-0.5-0.3-0.7-0.6c-0.2-0.3-0.2-0.6,0-1.1
		c0.2-0.5,0.4-1.2,0.9-2.2c0.4-1,0.8-2,1.3-3.1c0.4-1.1,0.8-2.1,1.3-3.1s0.7-1.9,0.9-2.6c-1.2-0.6-2.2-1.5-3.1-2.8
		c-0.9-1.3-1.3-2.5-1.3-3.8c0-1.6,0.4-3,1.3-4.2c0.8-1.2,2.1-1.7,3.8-1.7c1,0,2,0.4,2.7,1.3c0.8,0.9,1.2,1.9,1.2,3.1
		c0,0.7,0,1.6-0.1,2.8c-0.1,1.2-0.2,2.2-0.4,3c0.3,0.2,0.6,0.3,1.1,0.4c0.4,0.1,0.9,0.1,1.5,0.1c1.2,0,2.1-0.1,2.7-0.4
		c0.7-0.3,1.2-0.5,1.7-0.8c0.5-0.3,0.9-0.6,1.4-0.8c0.5-0.3,1.1-0.4,1.9-0.4c1,0,2.1,0.3,3.2,0.8c1,0.5,1.8,1.5,2.3,3.1
		c0.5,1.5,0.4,3.4-0.2,5.6c-0.6,2.2-1.5,4.4-2.6,6.8c-1.1,2.4-2.3,4.7-3.6,7c-1.3,2.3-2.4,4.4-3.2,6.2c-0.9,1.8-1.4,3.3-1.5,4.3
		c-0.1,1.1,0.4,1.6,1.6,1.5c0.5-0.1,1.1-0.5,2-1.3c0.8-0.8,1.8-1.8,2.8-3c1-1.2,2-2.6,3.1-4.1c1-1.5,2-3,3-4.6
		c0.9-1.5,1.8-3,2.5-4.3c0.7-1.4,1.3-2.5,1.6-3.4c0.2-0.4,0.4-0.7,0.8-0.8c0.4-0.1,0.7-0.1,1,0c0.3,0.1,0.6,0.3,0.7,0.6
		c0.2,0.3,0.2,0.7,0,1c-0.4,0.9-1,2.1-1.8,3.7c-0.8,1.5-1.7,3.2-2.8,5c-1.1,1.8-2.2,3.5-3.5,5.3c-1.3,1.8-2.6,3.4-3.9,4.9
		c-1.3,1.5-2.7,2.7-4.1,3.6c-1.4,0.9-2.7,1.4-3.9,1.4c-1.1,0.1-2-0.2-2.7-0.6c-0.8-0.5-1.4-1.1-1.9-2c-0.5-0.9-0.8-1.9-0.9-3.1
		c-0.2-1.2-0.2-2.6,0-4c0.2-2,0.7-4.2,1.5-6.5c0.8-2.3,1.7-4.6,2.6-6.8c0.9-2.2,1.9-4.3,2.8-6.3c0.9-1.9,1.5-3.6,2-5
		c-1.1,0.4-2.4,0.7-3.7,0.7c-1.4,0.1-2.8-0.1-4.1-0.4c-0.2,0.4-0.4,1-0.8,2c-0.4,1-0.8,2-1.3,3.1c-0.5,1.1-0.9,2.2-1.4,3.3
		C384.4,35.6,384,36.4,383.7,37z"/>
	<path class="st1" d="M441.6,34.7c0.6,0.4,0.8,1,0.5,1.7c-0.9,1.9-2,3.9-3.2,5.9c-1.2,2.1-2.6,4.1-4.2,6.1c-1.6,2-3.2,3.8-4.9,5.4
		c-1.7,1.7-3.5,3-5.4,4.1c-1.9,1.1-3.8,1.7-5.7,2c-1.9,0.3-3.9,0.1-5.8-0.7c-2.1-0.8-3.6-2.1-4.5-3.7c-0.9-1.6-1.5-3.4-1.6-5.3
		c-0.2-1.9,0-3.9,0.5-6c0.5-2.1,1.1-4,1.7-5.7c1.3-3.2,2.7-5.9,4.2-8.1c1.5-2.2,3.2-4.1,4.9-5.5c1.7-1.4,3.5-2.5,5.4-3.1
		c1.8-0.7,3.7-1,5.6-1c1.9,0,3.4,0.5,4.3,1.4c0.9,0.9,1.4,2.2,1.4,3.7c0,1.5-0.4,3.2-1.3,5c-0.8,1.8-2,3.6-3.6,5.4
		c-1.5,1.8-3.4,3.4-5.6,4.8c-2.2,1.4-4.7,2.5-7.4,3.3c-0.4,1.4-0.6,2.7-0.8,4.1c-0.2,1.3-0.2,2.6-0.1,3.7c0.1,1.1,0.4,2,0.7,2.8
		c0.4,0.7,1,1.2,1.8,1.3c1.2,0.2,2.4,0,3.7-0.5c1.3-0.6,2.7-1.4,4.1-2.5c1.4-1.1,2.8-2.4,4.1-3.9c1.3-1.5,2.6-3,3.8-4.6
		c1.2-1.6,2.2-3.2,3.2-4.8c0.9-1.6,1.6-3.1,2.2-4.4c0.2-0.4,0.4-0.7,0.8-0.9C440.7,34.3,441.1,34.4,441.6,34.7z M418.5,39.6
		c-0.3,0.6-0.5,1.1-0.6,1.6c3.2-1.1,5.7-2.6,7.8-4.5c2-1.9,3.5-3.8,4.5-5.7c1-1.9,1.5-3.5,1.5-4.8c0-1.4-0.4-2.1-1.4-2.1
		c-1.4-0.1-3.2,1.3-5.4,4.1C422.8,30.9,420.6,34.7,418.5,39.6z"/>
	<path class="st1" d="M470.7,34.7c0.6,0.4,0.8,1,0.5,1.7c-0.9,1.9-2,3.9-3.2,5.9c-1.2,2.1-2.6,4.1-4.2,6.1s-3.2,3.8-4.9,5.4
		c-1.7,1.7-3.5,3-5.4,4.1c-1.9,1.1-3.8,1.7-5.7,2s-3.9,0.1-5.8-0.7c-2.1-0.8-3.6-2.1-4.5-3.7c-0.9-1.6-1.5-3.4-1.6-5.3s0-3.9,0.5-6
		c0.5-2.1,1.1-4,1.7-5.7c1.3-3.2,2.7-5.9,4.2-8.1c1.5-2.2,3.2-4.1,4.9-5.5c1.7-1.4,3.5-2.5,5.4-3.1c1.8-0.7,3.7-1,5.6-1
		c1.9,0,3.4,0.5,4.3,1.4c0.9,0.9,1.4,2.2,1.4,3.7c0,1.5-0.4,3.2-1.3,5c-0.8,1.8-2,3.6-3.6,5.4c-1.6,1.8-3.4,3.4-5.6,4.8
		c-2.2,1.4-4.7,2.5-7.4,3.3c-0.4,1.4-0.6,2.7-0.8,4.1c-0.2,1.3-0.2,2.6-0.1,3.7c0.1,1.1,0.4,2,0.7,2.8c0.4,0.7,1,1.2,1.8,1.3
		c1.2,0.2,2.4,0,3.7-0.5c1.3-0.6,2.7-1.4,4.1-2.5c1.4-1.1,2.8-2.4,4.1-3.9c1.3-1.5,2.6-3,3.8-4.6c1.2-1.6,2.2-3.2,3.2-4.8
		c0.9-1.6,1.6-3.1,2.2-4.4c0.2-0.4,0.4-0.7,0.8-0.9C469.9,34.3,470.3,34.4,470.7,34.7z M447.6,39.6c-0.3,0.6-0.5,1.1-0.6,1.6
		c3.2-1.1,5.7-2.6,7.8-4.5c2-1.9,3.5-3.8,4.5-5.7c1-1.9,1.5-3.5,1.5-4.8c0-1.4-0.4-2.1-1.4-2.1c-1.4-0.1-3.2,1.3-5.4,4.1
		C451.9,30.9,449.8,34.7,447.6,39.6z"/>
	<path class="st1" d="M488.8,27.1c0-0.4,0.1-0.8,0.4-1.2c0.2-0.4,0.5-0.7,0.9-0.9c-0.3-0.6-0.7-0.9-1.3-0.9c-0.7-0.1-1.5,0.3-2.4,1
		s-1.9,1.7-2.9,3.1c-1,1.3-2.1,3-3.2,5c-1.1,2-2.2,4.2-3.3,6.6c-0.7,1.5-1.2,3.2-1.7,5c-0.4,1.8-0.7,3.6-0.8,5.2
		c-0.1,1.6,0.1,3,0.4,4.2c0.4,1.2,1,1.9,2,2.1c1.2,0.2,2.4,0,3.7-0.5c1.3-0.6,2.7-1.4,4.1-2.5c1.4-1.1,2.8-2.4,4.1-3.9
		c1.3-1.5,2.6-3,3.8-4.6c1.2-1.6,2.2-3.2,3.2-4.8c0.9-1.6,1.6-3.1,2.2-4.4c0.2-0.4,0.4-0.7,0.8-0.8c0.4-0.1,0.8-0.1,1.2,0.1
		c0.7,0.4,0.9,0.9,0.6,1.7c-0.8,1.8-1.9,3.8-3.1,5.9c-1.2,2.1-2.6,4.1-4.1,6c-1.5,1.9-3.2,3.8-4.9,5.5c-1.8,1.7-3.6,3.1-5.4,4.2
		c-1.9,1.1-3.8,1.8-5.8,2.1c-2,0.3-3.9,0.1-5.8-0.7c-2.1-0.8-3.6-2.1-4.5-3.7c-0.9-1.6-1.5-3.4-1.6-5.3c-0.2-1.9,0-3.9,0.5-6
		c0.5-2.1,1.1-4,1.7-5.7c1.3-3.2,2.7-5.9,4.2-8.2c1.5-2.3,3.2-4.1,4.9-5.6c1.7-1.4,3.5-2.5,5.4-3.1s3.7-0.9,5.6-0.9
		c0.6,0.1,1.3,0.2,2,0.4c0.7,0.2,1.4,0.5,2,0.9c0.6,0.4,1.1,1,1.5,1.7s0.6,1.6,0.6,2.6c0,1.1-0.2,1.8-0.7,2.3
		c-0.4,0.5-1,0.8-1.7,0.8c-0.6,0-1.2-0.2-1.7-0.6C489.1,28.3,488.8,27.8,488.8,27.1z"/>
	<path class="st1" d="M529.2,34.7c0.6,0.4,0.8,1,0.5,1.7c-0.9,1.9-2,3.9-3.2,5.9c-1.2,2.1-2.6,4.1-4.2,6.1s-3.2,3.8-4.9,5.4
		c-1.7,1.7-3.5,3-5.4,4.1c-1.9,1.1-3.8,1.7-5.7,2c-1.9,0.3-3.9,0.1-5.8-0.7c-2.1-0.8-3.6-2.1-4.5-3.7c-0.9-1.6-1.5-3.4-1.6-5.3
		c-0.2-1.9,0-3.9,0.5-6c0.5-2.1,1.1-4,1.7-5.7c1.3-3.2,2.7-5.9,4.2-8.1c1.5-2.2,3.2-4.1,4.9-5.5c1.7-1.4,3.5-2.5,5.4-3.1
		c1.8-0.7,3.7-1,5.6-1c1.9,0,3.4,0.5,4.3,1.4c0.9,0.9,1.4,2.2,1.4,3.7c0,1.5-0.4,3.2-1.3,5c-0.8,1.8-2,3.6-3.6,5.4
		c-1.5,1.8-3.4,3.4-5.6,4.8c-2.2,1.4-4.7,2.5-7.4,3.3c-0.4,1.4-0.6,2.7-0.8,4.1c-0.2,1.3-0.2,2.6-0.1,3.7c0.1,1.1,0.4,2,0.7,2.8
		c0.4,0.7,1,1.2,1.8,1.3c1.2,0.2,2.4,0,3.7-0.5c1.3-0.6,2.7-1.4,4.1-2.5c1.4-1.1,2.8-2.4,4.1-3.9c1.3-1.5,2.6-3,3.8-4.6
		c1.2-1.6,2.2-3.2,3.2-4.8c0.9-1.6,1.6-3.1,2.2-4.4c0.2-0.4,0.4-0.7,0.8-0.9C528.4,34.3,528.8,34.4,529.2,34.7z M506.2,39.6
		c-0.3,0.6-0.5,1.1-0.6,1.6c3.2-1.1,5.7-2.6,7.8-4.5c2-1.9,3.5-3.8,4.5-5.7c1-1.9,1.5-3.5,1.5-4.8c0-1.4-0.4-2.1-1.4-2.1
		c-1.4-0.1-3.2,1.3-5.4,4.1C510.5,30.9,508.3,34.7,506.2,39.6z"/>
</g>
</svg>
